<svg width="2000" height="2000" xmlns="http://www.w3.org/2000/svg" preserveAspectRatio="xMinYMin meet"  version="1.2">

	<ellipse stroke="null" fill="#fff" cx="1000.00018" cy="1058.62294" id="svg_1" rx="834.78486" ry="391.23614"/>
	<g stroke="null" id="otter">
		<path stroke="null" id="face" fill="black" d="m927.06705,363.14282c-15.99538,1.04869 -51.45182,4.98128 -78.64397,8.91387c-27.19215,3.93259 -59.44951,9.43821 -71.97923,12.58428c-12.52972,2.8839 -33.05713,7.603 -46.12002,10.22473c-12.79631,2.8839 -28.79169,7.34083 -35.72302,10.22473c-7.19792,2.62173 -20.52741,6.81649 -30.12464,9.17604c-9.59723,2.35955 -21.59377,6.55431 -26.65897,9.43821c-5.0652,2.62173 -15.99538,7.34083 -23.99308,9.96256c-7.99769,2.8839 -23.72649,8.91387 -34.65666,13.89515c-11.19677,4.71911 -23.4599,10.74908 -27.45874,13.3708c-3.99885,2.35955 -10.397,5.7678 -14.39585,7.34083c-4.26544,1.57304 -19.72764,10.74908 -34.92325,20.18729c-15.19561,9.70039 -38.12233,24.38205 -50.65205,32.77157c-12.79631,8.12735 -27.45874,18.35208 -32.79054,22.28467c-5.33179,3.93259 -15.99538,11.79777 -23.99308,17.82773c-7.99769,6.02997 -31.45759,27.79029 -52.51818,48.50193c-20.794,20.71163 -45.85343,47.71541 -55.18407,60.03752c-9.59723,12.32211 -21.59377,28.57681 -26.65897,36.17981c-5.0652,7.34083 -13.32949,15.99253 -17.86151,18.87643c-7.19792,4.19476 -13.59608,5.24345 -35.45643,5.24345c-14.66244,0 -33.8569,1.31086 -42.65436,2.8839c-8.79746,1.57304 -20.26082,5.24345 -25.32602,8.12735c-5.0652,2.8839 -13.59608,7.86518 -18.66128,10.74908c-5.0652,2.8839 -15.99538,10.4869 -23.99308,17.04122c-7.99769,6.55431 -18.66128,17.30339 -23.19331,23.8577c-4.79862,6.55431 -10.397,15.99253 -12.79631,20.71163c-2.13272,4.45693 -5.33179,14.68166 -6.66474,22.28467c-1.59954,7.34083 -2.6659,20.18729 -2.6659,28.05247c0,7.86518 1.86613,22.28467 3.99885,32.24723c2.93249,12.58428 7.19792,22.0225 15.72879,34.08243c6.66474,8.91387 16.79515,20.71163 22.66013,26.21726c6.13156,5.24345 21.06059,15.73035 33.59031,22.80901c12.52972,7.34083 24.25967,15.73035 26.39238,19.1386c2.39931,3.67042 4.26544,18.08991 5.33179,40.63675c0.79977,18.87643 2.93249,36.96633 4.26544,39.85023c1.59954,3.40824 5.33179,5.24345 10.13041,5.24345c3.99885,0 11.46336,-2.62173 16.52856,-5.7678c5.0652,-2.8839 15.99538,-8.91387 23.99308,-13.3708c7.99769,-4.19476 20.794,-10.74908 27.99192,-14.41949c7.46451,-3.40824 29.05828,-13.89515 47.98615,-23.07119c18.92787,-9.17604 36.52279,-16.77904 38.65551,-16.77904c2.13272,0 11.19677,-3.67042 19.99423,-8.12735c8.79746,-4.71911 22.66013,-10.4869 30.65782,-13.3708c7.99769,-2.62173 20.794,-7.07866 27.99192,-9.70039c7.46451,-2.8839 29.59146,-9.96256 49.3191,-15.99253c19.72764,-6.02997 45.05366,-13.63297 55.98384,-17.04122c10.93018,-3.40824 32.52395,-8.65169 47.98615,-11.53559c15.4622,-2.8839 34.65666,-7.603 42.65436,-10.22473c7.99769,-2.8839 22.92672,-5.7678 33.32372,-6.81649c10.397,-1.04869 33.05713,-4.71911 50.65205,-8.12735c17.59492,-3.40824 41.588,-7.34083 53.31795,-8.65169c19.19446,-2.09738 22.66013,-3.14607 33.8569,-12.58428c7.19792,-5.50562 14.39585,-13.10863 15.99538,-16.51687c1.86613,-3.40824 10.397,-11.27342 18.92787,-17.56556c8.26428,-6.29214 23.19331,-15.46818 33.32372,-20.44946c9.86382,-4.71911 29.32487,-12.05994 43.18754,-15.99253c13.86267,-3.93259 30.12464,-8.38952 35.98961,-9.96256c6.39815,-1.83521 37.32256,-2.8839 78.64397,-2.8839c54.91748,0 70.64628,0.78652 81.30987,4.19476c7.46451,2.35955 22.92672,7.07866 34.65666,10.4869c11.72995,3.67042 30.39123,10.74908 41.32141,16.2547c10.93018,5.24345 25.32602,13.89515 31.99077,19.1386c6.66474,5.24345 13.59608,11.79777 15.72879,14.94384c2.13272,2.8839 7.99769,9.96256 13.32949,15.20601c5.33179,5.50562 13.0629,11.01125 17.59492,12.32211c4.53203,1.31086 15.19561,3.14607 23.99308,3.93259c8.79746,1.04869 27.99192,4.19476 42.65436,7.07866c14.66244,2.8839 39.18869,7.07866 54.65089,8.91387c15.4622,2.09738 34.65666,6.02997 42.65436,8.65169c7.99769,2.8839 23.72649,6.55431 34.65666,8.12735c10.93018,1.83521 29.05828,6.02997 39.98846,9.43821c10.93018,3.67042 28.5251,8.38952 38.65551,10.74908c10.13041,2.35955 21.59377,5.7678 25.32602,7.603c3.73226,1.83521 16.79515,6.29214 29.32487,9.96256c12.52972,3.67042 32.25736,10.22473 43.98731,14.41949c11.72995,4.19476 27.99192,11.27342 35.98961,15.73035c7.99769,4.19476 17.86151,8.38952 22.12695,9.43821c3.99885,0.78652 24.79284,9.70039 46.6532,19.92512c21.59377,9.96256 42.12118,19.92512 45.85343,22.0225c3.73226,2.09738 17.86151,9.70039 31.45759,17.04122c13.32949,7.34083 27.45874,13.3708 31.191,13.3708c4.53203,0 7.46451,-2.09738 9.33064,-6.55431c1.33295,-3.67042 2.6659,-20.97381 2.6659,-38.53937c0,-20.44946 1.33295,-34.60678 3.46567,-38.53937c1.59954,-3.40824 13.86267,-12.58428 27.19215,-20.44946c13.32949,-7.603 30.12464,-19.66294 37.32256,-26.47943c7.46451,-7.07866 17.32833,-17.82773 21.86036,-24.38205c4.79862,-6.29214 10.66359,-18.61425 13.32949,-27.26595c2.6659,-9.43821 4.53203,-25.16857 4.53203,-39.32589c0,-14.68166 -1.59954,-29.10116 -4.53203,-38.01502c-2.39931,-7.86518 -9.59723,-21.23598 -15.72879,-29.36333c-6.39815,-8.38952 -17.32833,-20.18729 -24.79284,-26.47943c-7.19792,-6.29214 -22.39354,-16.2547 -33.32372,-22.0225c-11.46336,-6.29214 -26.92556,-12.05994 -35.98961,-13.63297c-8.79746,-1.57304 -28.5251,-2.8839 -43.98731,-2.8839l-27.99192,-0.26217c-16.52856,-17.30339 -23.72649,-26.21726 -26.65897,-30.67419c-2.93249,-4.45693 -13.0629,-18.08991 -22.39354,-29.88767c-9.59723,-12.05994 -26.39238,-30.93636 -37.32256,-42.47196c-11.19677,-11.27342 -29.32487,-29.10116 -40.25505,-39.58806c-10.93018,-10.74908 -25.32602,-23.07119 -31.72418,-28.05247c-6.39815,-4.71911 -14.92902,-11.01125 -18.92787,-13.89515c-3.99885,-2.8839 -19.72764,-13.3708 -34.92325,-23.33336c-15.19561,-9.96256 -32.52395,-21.23598 -38.38892,-24.90639c-5.86497,-3.40824 -17.32833,-10.74908 -25.32602,-15.99253c-7.99769,-5.24345 -26.65897,-15.20601 -41.32141,-22.0225c-14.66244,-6.81649 -29.59146,-14.15732 -33.32372,-15.99253c-3.73226,-1.83521 -16.26197,-7.07866 -27.99192,-11.27342c-11.72995,-4.45693 -26.65897,-9.70039 -33.32372,-12.05994c-6.66474,-2.09738 -21.06059,-7.07866 -31.99077,-11.01125c-10.93018,-3.67042 -27.19215,-8.38952 -35.98961,-10.4869c-8.79746,-2.09738 -26.65897,-6.81649 -39.98846,-10.22473c-13.32949,-3.67042 -37.85574,-8.38952 -54.65089,-10.4869c-16.79515,-2.09738 -40.78823,-5.7678 -53.31795,-7.86518c-12.52972,-2.09738 -38.9221,-4.98128 -58.64974,-6.55431c-19.72764,-1.31086 -53.85113,-2.35955 -75.97807,-2.09738c-21.86036,0 -53.31795,1.04869 -69.31333,2.09738zm18.66128,482.92188c-16.52856,1.31086 -35.98961,5.24345 -51.18523,9.96256c-13.59608,4.45693 -26.39238,7.86518 -27.99192,7.86518c-1.86613,0 -13.0629,5.50562 -24.79284,12.58428c-11.72995,7.07866 -26.92556,18.35208 -33.8569,24.90639c-7.99769,7.603 -13.86267,15.99253 -15.4622,22.28467c-1.33295,5.24345 -2.6659,12.58428 -2.6659,16.2547c0,3.67042 1.33295,10.74908 2.93249,15.73035c1.86613,4.98128 6.93133,13.10863 11.46336,17.82773c4.53203,4.98128 15.99538,14.68166 25.59261,21.76032c9.59723,7.07866 22.12695,14.15732 27.99192,15.73035c5.86497,1.31086 18.92787,5.50562 29.32487,8.91387c10.397,3.67042 26.92556,7.603 37.32256,9.17604c10.397,1.57304 21.59377,4.98128 25.32602,7.603c3.73226,2.62173 9.86382,11.01125 14.12926,18.87643c3.99885,7.86518 8.53087,21.23598 10.13041,29.88767c1.59954,8.65169 2.39931,28.05247 1.59954,43.25847c-1.06636,25.16857 -2.13272,29.36333 -11.72995,49.81279c-8.79746,18.61425 -14.39585,25.95508 -34.39007,45.61803c-13.0629,12.84646 -30.39123,28.31464 -38.38892,34.60678c-7.99769,6.29214 -24.25967,16.2547 -35.98961,22.28467c-12.52972,6.29214 -34.12349,14.15732 -51.985,18.87643c-27.99192,7.07866 -35.45643,8.12735 -83.97576,9.17604c-46.91979,1.04869 -56.78361,0.52435 -82.64282,-4.45693c-15.99538,-3.14607 -35.72302,-5.24345 -43.72072,-4.98128c-7.99769,0.52435 -14.92902,2.09738 -15.4622,3.40824c-0.26659,1.31086 7.99769,7.07866 18.66128,12.32211c10.93018,5.7678 29.32487,12.05994 43.18754,15.20601c13.32949,2.8839 28.25851,6.55431 33.32372,8.12735c5.0652,1.57304 30.39123,3.40824 55.98384,4.19476c27.45874,0.78652 53.85113,0.26217 63.98153,-1.31086c9.59723,-1.57304 31.191,-6.02997 47.98615,-9.96256c16.79515,-3.67042 38.9221,-10.74908 49.3191,-15.20601c10.397,-4.71911 29.32487,-14.94384 42.38777,-22.80901c13.86267,-8.12735 27.99192,-18.87643 33.32372,-25.69291c5.33179,-6.29214 12.26313,-14.15732 15.4622,-17.56556c4.53203,-4.71911 8.53087,-6.29214 17.32833,-6.29214c10.93018,0 12.52972,1.31086 30.12464,19.92512c12.52972,13.3708 25.59261,23.8577 39.98846,32.24723c11.72995,6.81649 29.85805,15.99253 39.98846,20.71163c10.13041,4.45693 27.72533,9.96256 38.65551,12.32211c10.93018,2.35955 26.65897,6.29214 34.65666,8.65169c11.72995,3.67042 25.32602,4.45693 69.31333,4.45693c51.985,0 56.51702,-0.52435 92.77323,-8.38952c25.32602,-5.7678 44.52048,-11.79777 57.84997,-18.35208c10.93018,-5.50562 19.99423,-11.53559 19.99423,-13.10863c0,-2.62173 -5.86497,-3.14607 -23.19331,-2.35955c-13.0629,0.52435 -33.05713,2.8839 -44.78707,5.24345c-13.86267,2.62173 -37.05597,3.93259 -66.64743,4.19476c-38.12233,0 -50.65205,-1.04869 -78.64397,-6.81649c-24.79284,-4.71911 -39.98846,-9.70039 -58.64974,-18.35208c-13.86267,-6.55431 -28.79169,-14.94384 -33.32372,-18.35208c-4.53203,-3.40824 -15.72879,-12.58428 -25.32602,-20.18729c-9.59723,-7.603 -25.05943,-22.80901 -34.65666,-33.55809c-12.79631,-14.68166 -19.72764,-25.43074 -26.65897,-41.94761c-8.53087,-20.71163 -9.06405,-23.8577 -8.79746,-50.86148c0,-15.73035 1.59954,-34.08243 3.46567,-40.63675c1.59954,-6.55431 6.13156,-18.08991 9.59723,-25.43074c3.99885,-8.65169 9.06405,-15.20601 13.86267,-17.56556c3.99885,-2.09738 14.92902,-4.98128 24.52625,-6.55431c9.59723,-1.57304 31.191,-7.07866 47.98615,-12.58428c22.12695,-6.81649 34.65666,-12.58428 45.32025,-20.18729c7.99769,-6.02997 19.46105,-15.46818 25.59261,-21.23598c8.79746,-8.12735 11.72995,-13.63297 14.39585,-24.90639c2.93249,-12.32211 2.6659,-16.2547 -0.79977,-27.52812c-3.46567,-9.96256 -7.7311,-15.99253 -18.39469,-24.90639c-7.7311,-6.55431 -22.66013,-16.77904 -32.79054,-22.80901c-10.13041,-6.02997 -22.12695,-11.79777 -26.65897,-12.58428c-4.53203,-1.04869 -17.32833,-4.71911 -28.5251,-8.12735c-13.32949,-3.93259 -33.32372,-7.34083 -54.65089,-8.91387c-18.92787,-1.57304 -42.38777,-2.35955 -52.78477,-2.35955c-10.397,0.26217 -30.65782,1.57304 -45.32025,2.8839zm-413.21408,205.5433c-15.99538,1.83521 -46.12002,8.12735 -66.64743,13.89515c-20.52741,5.7678 -49.3191,14.41949 -63.98153,19.40077c-14.66244,4.98128 -29.59146,10.74908 -33.32372,13.10863c-3.73226,2.35955 -13.32949,6.55431 -21.32718,9.17604c-7.99769,2.8839 -21.06059,8.12735 -28.5251,12.05994c-7.7311,3.67042 -14.92902,6.81649 -16.26197,6.81649c-1.06636,0 -6.13156,3.40824 -11.19677,7.603c-5.0652,3.93259 -14.12926,9.70039 -19.99423,12.84646c-5.86497,2.8839 -18.39469,9.96256 -27.99192,15.99253c-9.59723,5.7678 -25.05943,15.20601 -34.65666,20.97381c-9.59723,5.50562 -34.12349,22.54684 -54.65089,37.75285c-26.12579,19.40077 -48.78592,39.06371 -75.71148,66.32966c-21.06059,21.49815 -42.65436,45.61803 -47.71956,53.4832c-5.0652,7.86518 -13.32949,24.38205 -18.39469,36.70416c-6.13156,14.94384 -7.99769,23.07119 -6.13156,24.90639q2.6659,2.62173 9.33064,-0.52435c3.73226,-1.83521 9.59723,-7.86518 13.0629,-13.10863c3.46567,-5.50562 26.12579,-28.83898 50.11887,-51.91017c24.25967,-23.07119 54.3843,-50.86148 67.18061,-61.61055c12.79631,-10.74908 40.25505,-31.19854 61.04905,-45.35585c20.794,-14.15732 52.25159,-33.29592 69.84651,-42.47196c17.59492,-9.17604 46.91979,-23.33336 65.31448,-31.19854c18.39469,-8.12735 41.588,-18.87643 51.985,-23.8577c10.397,-4.98128 25.8592,-11.53559 34.65666,-14.68166c8.79746,-2.8839 23.72649,-7.603 33.32372,-10.4869c9.59723,-2.8839 26.39238,-8.12735 37.32256,-11.53559c10.93018,-3.40824 33.32372,-8.65169 49.3191,-11.53559c15.99538,-2.8839 37.05597,-7.07866 46.6532,-9.17604c9.59723,-2.09738 25.59261,-4.71911 35.98961,-5.7678c10.397,-0.78652 23.19331,-2.62173 28.79169,-3.93259c5.33179,-1.31086 9.86382,-3.67042 9.86382,-4.98128c0,-1.31086 -2.13272,-3.67042 -4.53203,-4.98128c-2.6659,-1.31086 -18.66128,-3.67042 -35.45643,-5.24345c-16.79515,-1.57304 -38.9221,-2.62173 -49.3191,-2.62173c-10.397,0.26217 -31.99077,1.83521 -47.98615,3.93259zm829.09405,-1.57304c-10.13041,1.31086 -21.86036,3.67042 -25.8592,4.98128c-4.26544,1.57304 -7.19792,4.45693 -6.66474,6.29214c0.53318,1.57304 6.13156,3.93259 12.79631,5.24345c6.39815,1.04869 23.72649,3.67042 38.38892,5.7678c14.66244,2.09738 42.12118,6.81649 61.31564,10.22473c19.19446,3.67042 44.25389,9.43821 55.98384,13.10863c11.72995,3.40824 28.5251,8.65169 37.32256,11.53559c8.79746,2.8839 25.59261,8.65169 37.32256,12.58428c11.72995,4.19476 25.59261,9.96256 30.65782,12.84646c5.0652,2.62173 18.39469,8.91387 29.32487,13.89515c10.93018,4.98128 26.12579,11.27342 33.32372,14.15732c7.46451,2.8839 28.25851,12.84646 46.6532,22.28467c18.39469,9.43821 50.65205,28.57681 71.97923,42.47196c21.32718,13.89515 44.25389,30.41202 50.91864,36.96633c6.93133,6.55431 19.99423,17.56556 29.32487,24.90639c9.33064,7.07866 41.32141,36.96633 71.17946,66.06749c39.98846,39.58806 54.65089,52.43451 57.31679,50.59931c2.39931,-2.09738 2.39931,-4.45693 0,-9.96256c-1.59954,-3.93259 -6.39815,-14.68166 -10.397,-24.11988c-3.99885,-9.43821 -12.79631,-24.64422 -19.46105,-34.08243c-6.66474,-9.43821 -26.65897,-31.19854 -44.25389,-48.7641c-17.59492,-17.56556 -40.52164,-38.80154 -50.91864,-47.19106c-10.66359,-8.65169 -26.65897,-20.97381 -35.98961,-27.52812c-9.33064,-6.55431 -22.39354,-15.46818 -29.05828,-19.66294c-6.66474,-4.45693 -18.66128,-12.05994 -26.65897,-17.30339c-7.99769,-5.24345 -23.19331,-14.15732 -33.32372,-20.18729c-10.13041,-5.7678 -19.46105,-10.74908 -20.52741,-10.74908c-1.33295,0 -6.66474,-3.40824 -11.99654,-7.603c-5.59838,-4.19476 -22.66013,-13.10863 -38.12233,-19.66294c-15.4622,-6.81649 -33.32372,-14.68166 -39.98846,-17.82773c-6.66474,-3.14607 -23.4599,-9.43821 -37.32256,-14.41949c-13.86267,-4.98128 -35.45643,-11.79777 -47.98615,-15.20601c-12.52972,-3.40824 -26.12579,-7.603 -30.65782,-9.17604c-4.53203,-1.57304 -19.46105,-4.71911 -33.32372,-6.81649c-13.86267,-2.09738 -42.65436,-4.19476 -63.98153,-4.98128c-21.32718,-0.52435 -47.18638,0 -57.31679,1.31086zm-646.48009,97.00385c-6.66474,1.04869 -25.32602,6.29214 -41.32141,11.27342c-15.99538,4.98128 -38.9221,13.3708 -50.65205,18.61425c-11.72995,5.24345 -25.05943,11.53559 -29.32487,13.89515c-4.26544,2.35955 -11.72995,6.02997 -15.99538,8.12735c-4.26544,2.09738 -13.86267,7.603 -21.32718,12.32211c-7.19792,4.45693 -22.39354,14.15732 -33.32372,21.23598c-10.93018,7.07866 -26.92556,18.61425 -35.72302,25.95508c-8.53087,7.07866 -19.99423,16.51687 -25.32602,20.44946c-5.33179,3.93259 -22.12695,18.61425 -37.58915,32.5094c-15.4622,13.89515 -36.78938,34.34461 -47.71956,45.09368c-10.93018,11.01125 -31.45759,33.03374 -45.58684,48.7641c-14.12926,15.73035 -33.59031,39.85023 -42.92095,53.4832c-9.33064,13.3708 -18.66128,27.00377 -20.794,30.14985c-2.13272,2.8839 -8.26428,12.05994 -13.59608,19.92512c-5.33179,7.86518 -10.66359,17.30339 -11.99654,20.97381c-1.06636,3.67042 -5.33179,13.10863 -9.33064,20.97381c-4.26544,7.86518 -10.66359,26.7416 -14.39585,41.94761c-3.99885,15.20601 -7.46451,29.36333 -7.99769,31.46071c-0.53318,2.09738 0,5.7678 1.06636,7.86518c1.86613,3.40824 3.46567,3.40824 9.06405,0.78652c4.53203,-2.35955 10.397,-10.22473 16.26197,-22.28467c5.33179,-10.4869 13.32949,-25.69291 18.1281,-33.82026c4.79862,-7.86518 11.19677,-17.82773 14.12926,-22.28467c3.19908,-4.19476 8.79746,-13.3708 12.79631,-20.71163c3.99885,-7.07866 10.397,-18.08991 14.39585,-23.8577c3.99885,-6.02997 12.52972,-17.82773 18.92787,-26.21726c6.66474,-8.65169 14.39585,-17.82773 17.32833,-20.97381c3.19908,-2.8839 16.52856,-18.35208 30.12464,-34.08243c13.32949,-15.73035 36.78938,-40.37458 51.985,-54.79407c15.19561,-14.41949 40.52164,-36.96633 56.51702,-49.81279c15.72879,-13.10863 39.18869,-30.41202 51.985,-38.80154c12.52972,-8.38952 25.32602,-18.08991 28.25851,-21.49815c2.93249,-3.40824 17.86151,-13.63297 33.32372,-22.54684c15.4622,-8.91387 35.72302,-20.44946 45.32025,-25.43074c9.59723,-4.98128 26.92556,-13.89515 38.65551,-19.66294c11.72995,-5.7678 32.79054,-14.94384 46.6532,-20.71163c13.86267,-5.50562 30.65782,-11.79777 37.32256,-13.89515c6.66474,-1.83521 13.59608,-5.50562 15.4622,-7.603c2.6659,-3.40824 2.39931,-4.71911 -2.13272,-6.81649c-2.93249,-1.31086 -12.79631,-2.35955 -21.86036,-2.35955c-9.33064,0.26217 -22.12695,1.31086 -28.79169,2.35955zm517.98384,0c-5.0652,2.09738 -5.59838,3.40824 -2.6659,6.81649c1.59954,2.09738 8.53087,5.50562 15.19561,7.34083c6.66474,1.83521 16.79515,5.7678 22.66013,8.65169c5.86497,2.8839 15.4622,6.81649 21.32718,8.65169c5.86497,1.83521 22.12695,8.91387 35.98961,15.73035c13.86267,6.81649 30.65782,15.20601 37.32256,18.87643c6.66474,3.40824 16.26197,8.65169 21.32718,11.53559c5.0652,2.8839 18.39469,10.4869 29.32487,16.77904c10.93018,6.29214 24.52625,15.73035 30.12464,20.71163c5.59838,5.24345 19.19446,15.46818 29.85805,22.54684c10.93018,7.34083 30.12464,21.49815 42.92095,31.46071c12.79631,9.96256 39.18869,32.77157 58.11656,50.07496c19.19446,17.56556 41.588,39.85023 49.58569,49.55062c7.99769,9.70039 17.06174,20.18729 20.26082,23.33336c2.93249,3.14607 10.13041,11.27342 15.99538,18.35208c5.59838,7.07866 16.26197,20.18729 23.72649,29.10116c7.19792,8.91387 17.59492,23.59553 22.66013,32.5094c5.0652,9.17604 13.0629,22.0225 17.59492,28.57681c4.53203,6.81649 10.93018,17.56556 14.39585,24.11988c3.46567,6.55431 8.79746,15.20601 11.99654,19.66294c3.19908,4.45693 7.7311,13.10863 10.13041,19.66294c2.39931,6.55431 8.26428,15.73035 13.0629,20.71163c4.79862,4.71911 10.397,7.86518 11.99654,7.07866c1.86613,-0.78652 3.46567,-5.50562 3.46567,-9.96256c0,-4.71911 -5.33179,-23.33336 -11.72995,-41.42327c-6.39815,-18.08991 -14.92902,-40.37458 -18.92787,-49.81279c-3.99885,-9.43821 -13.86267,-26.47943 -21.59377,-38.01502c-7.99769,-11.53559 -21.32718,-30.67419 -29.85805,-42.47196c-8.26428,-11.79777 -18.39469,-24.64422 -22.12695,-28.83898c-3.73226,-3.93259 -9.86382,-11.53559 -13.59608,-16.51687c-3.73226,-4.98128 -19.19446,-22.28467 -34.39007,-38.53937c-15.19561,-16.2547 -42.92095,-42.73413 -61.31564,-58.98883c-18.66128,-16.2547 -40.25505,-34.86895 -47.98615,-41.42327c-7.7311,-6.55431 -19.72764,-15.99253 -26.39238,-21.23598c-6.66474,-4.98128 -19.19446,-13.63297 -27.99192,-19.1386c-8.79746,-5.50562 -23.72649,-15.20601 -33.32372,-21.49815c-9.59723,-6.29214 -18.66128,-11.53559 -19.99423,-11.53559c-1.33295,0 -6.93133,-2.8839 -11.99654,-6.02997c-5.0652,-3.14607 -18.39469,-9.70039 -29.32487,-14.41949c-10.93018,-4.98128 -35.45643,-14.15732 -54.65089,-20.18729c-27.72533,-7.86518 0,0 0,0"/>
		<g stroke="null" id="eyes">
			<path stroke="null" id="base" fill="white" d="m569.83682,750.89605c-5.86497,1.31086 -17.86151,6.02997 -26.65897,10.22473c-8.79746,4.45693 -21.06059,12.32211 -27.45874,17.30339c-7.99769,6.81649 -12.79631,13.63297 -16.79515,24.64422c-3.99885,10.74908 -5.33179,18.87643 -4.53203,29.36333c0.79977,8.91387 4.26544,19.92512 9.06405,28.83898c5.33179,9.96256 12.79631,18.08991 23.72649,26.47943c11.46336,8.65169 20.52741,13.10863 31.99077,15.46818c8.79746,2.09738 24.25967,3.67042 34.65666,3.67042c10.397,0.26217 23.99308,-0.52435 30.65782,-1.57304c6.93133,-1.31086 18.66128,-6.29214 27.99192,-12.32211c8.79746,-5.7678 20.52741,-15.99253 26.12579,-22.54684c5.33179,-6.55431 11.19677,-14.68166 12.52972,-18.35208c1.33295,-3.67042 2.6659,-14.15732 2.6659,-23.59553c0,-9.43821 -1.86613,-20.97381 -3.99885,-25.43074c-2.13272,-4.71911 -8.26428,-13.3708 -13.86267,-19.40077c-5.59838,-6.02997 -19.19446,-15.73035 -30.12464,-21.49815c-17.86151,-9.70039 -22.39354,-11.01125 -42.65436,-12.05994c-12.52972,-0.78652 -27.45874,-0.26217 -33.32372,0.78652zm807.76688,0.26217c-5.86497,1.31086 -18.39469,6.29214 -27.99192,11.53559c-11.19677,5.7678 -21.59377,13.89515 -29.32487,23.07119c-6.39815,7.603 -13.32949,18.08991 -15.19561,23.07119c-1.86613,4.98128 -3.19908,14.15732 -3.46567,20.44946c0,6.02997 1.59954,14.94384 3.46567,19.66294c1.86613,4.45693 7.7311,13.3708 12.79631,19.66294c5.0652,6.29214 15.4622,15.99253 23.19331,21.76032c10.13041,7.603 18.92787,11.27342 33.32372,14.41949c12.79631,2.8839 25.32602,3.67042 37.85574,2.62173c10.13041,-0.78652 25.05943,-3.40824 32.79054,-5.50562c8.79746,-2.62173 19.46105,-8.38952 29.32487,-16.51687c10.66359,-8.91387 17.06174,-16.77904 21.59377,-27.00377c3.46567,-7.603 6.93133,-19.40077 7.46451,-25.95508c0.79977,-8.12735 -0.53318,-16.77904 -4.79862,-27.52812c-3.46567,-9.70039 -9.59723,-19.1386 -15.72879,-24.90639c-5.33179,-4.98128 -18.66128,-13.63297 -29.59146,-19.1386c-17.06174,-8.38952 -22.66013,-9.96256 -42.38777,-11.01125c-12.52972,-0.52435 -27.45874,0 -33.32372,1.31086z"/>
			<path stroke="null" id="iris" fill="black" d="m566.10456,789.69759c-9.06405,2.8839 -14.39585,7.34083 -22.12695,17.30339c-6.13156,8.38952 -10.13041,16.51687 -10.13041,21.49815c0,4.19476 1.86613,10.74908 4.26544,14.41949c2.6659,3.67042 8.79746,11.01125 14.12926,16.51687c5.33179,5.50562 13.32949,12.05994 17.59492,14.41949c5.0652,2.62173 14.92902,4.19476 27.19215,4.19476c17.06174,0.26217 20.26082,-0.52435 30.39123,-7.603c6.39815,-4.45693 15.19561,-13.10863 19.46105,-19.1386c5.59838,-7.86518 8.26428,-14.68166 8.26428,-21.23598c0,-6.29214 -2.93249,-14.41949 -7.99769,-22.80901c-6.66474,-10.74908 -10.397,-13.63297 -21.32718,-17.30339c-7.46451,-2.62173 -21.06059,-4.45693 -30.65782,-4.45693c-9.59723,0 -22.66013,1.83521 -29.05828,4.19476zm807.50029,-0.52435c-6.66474,2.09738 -14.12926,6.02997 -17.06174,8.65169c-2.6659,2.35955 -6.66474,8.38952 -8.53087,12.84646c-2.13272,4.71911 -3.73226,13.63297 -3.73226,19.66294c0.26659,6.29214 2.39931,14.94384 4.79862,19.40077c2.39931,4.71911 9.33064,12.32211 15.19561,17.30339c7.46451,6.29214 14.39585,9.43821 23.99308,10.74908c7.46451,1.04869 18.66128,1.04869 25.32602,0c8.26428,-1.31086 15.99538,-4.98128 25.05943,-12.32211c7.19792,-6.02997 15.72879,-14.15732 18.66128,-18.08991c3.46567,-4.71911 5.59838,-11.27342 5.59838,-18.35208c0,-8.65169 -2.13272,-13.3708 -9.33064,-22.54684c-5.0652,-6.02997 -12.79631,-13.10863 -17.32833,-15.46818c-4.79862,-2.35955 -16.52856,-4.45693 -29.32487,-4.98128c-13.86267,-0.52435 -25.59261,0.52435 -33.32372,3.14607z"/>
		</g>
	</g>
</svg>